<?xml version="1.0" encoding="UTF-8"?>
<svg xmlns="http://www.w3.org/2000/svg" version="1.1" viewBox="0 0 1000 500">
  <!-- Generator: Adobe Illustrator 30.0.0, SVG Export Plug-In . SVG Version: 2.1.1 Build 123)  -->
  <defs>
    <style>
      .st0, .st1 {
        fill: #005272;
      }

      .st1 {
        font-family: CenturyGothic-Bold, 'Century Gothic';
        font-size: 69.2px;
        font-weight: 700;
      }
    </style>
  </defs>
  <g id="text-heal-long">
    <text class="st1" transform="translate(66.3 365.7)"><tspan x="0" y="0">Heuristic and Evolutionary</tspan><tspan x="0" y="83.1">Algorithms Laboratory</tspan></text>
  </g>
  <g id="text-heal">
    <path class="st0" d="M486.2,179s0,0,0,0h0c0-.1,0-.1,0-.1,0-33.2-27.1-60.2-60.3-60.2s-21.4,3-30.3,8.2V42.9h-30v221.3h30v-85.2c0-16.7,13.6-30.3,30.3-30.3s30.3,13.6,30.3,30.3h0v85.2h30v-85.2h0Z"/>
    <rect class="st0" x="899.5" y="42.9" width="30" height="221.3"/>
    <path class="st0" d="M818.4,115.4v16.4c-12.8-10.3-28.9-16.4-46.5-16.4-41,0-74.4,33.4-74.4,74.4s33.4,74.4,74.4,74.4,33.8-6.2,46.5-16.4v16.6h30V115.4h-30ZM771.8,234.1c-24.5,0-44.4-19.9-44.4-44.4s19.9-44.4,44.4-44.4,44.4,19.9,44.4,44.4-19.9,44.4-44.4,44.4Z"/>
    <path class="st0" d="M667.1,200h-114.2c1.6,10.1,6.1,18.1,13.2,24,7.2,5.9,16.3,8.9,27.4,8.9s24.7-4.6,34.2-13.9l29.9,14.1c-7.5,10.6-16.4,18.4-26.8,23.5-10.4,5.1-22.8,7.6-37.1,7.6-22.2,0-40.3-7-54.3-21-14-14-21-31.6-21-52.7s7-39.6,20.9-53.8c13.9-14.3,31.4-21.4,52.4-21.4s40.5,7.1,54.4,21.4c14,14.3,21,33.1,21,56.6v6.8ZM631.5,172c-2.3-7.9-7-14.3-13.9-19.3s-14.9-7.4-24.1-7.4-18.6,2.8-26.1,8.3c-4.7,3.5-9,9.6-13,18.4h77.1Z"/>
  </g>
  <g id="blocks">
    <g>
      <polygon class="st0" points="172.4 264.2 128 245.5 128 192.7 172.4 211.4 172.4 264.2"/>
      <polygon class="st0" points="116.4 240.7 72 222.1 72 169.3 116.4 187.9 116.4 240.7"/>
      <polygon class="st0" points="172.4 200.6 128 181.9 128 129.1 172.4 147.8 172.4 200.6"/>
      <polygon class="st0" points="116.4 177.7 72 159.1 72 106.3 116.4 124.9 116.4 177.7"/>
      <polygon class="st0" points="116.4 114.4 72 95.7 72 42.9 116.4 61.6 116.4 114.4"/>
      <polygon class="st0" points="240.1 240.7 284.6 222.1 284.6 169.3 240.1 187.9 240.1 240.7"/>
      <polygon class="st0" points="184.1 264.2 228.5 245.6 228.5 192.8 184.1 211.4 184.1 264.2"/>
      <polygon class="st0" points="184.1 200.6 228.5 182 228.5 129.2 184.1 147.8 184.1 200.6"/>
      <polygon class="st0" points="184.1 136.5 228.5 117.9 228.5 65.1 184.1 83.7 184.1 136.5"/>
    </g>
  </g>
</svg>